<svg width="175" height="104" viewBox="0 0 175 104" fill="none" xmlns="http://www.w3.org/2000/svg">
<path d="M113.709 0.5H175L165.634 44.5016C163.991 52.0824 161.416 59.4435 157.911 66.5848C154.515 73.6163 149.75 79.9336 143.615 85.5368C137.59 91.0301 130.305 95.4248 121.761 98.7208C113.326 101.907 103.357 103.5 91.8545 103.5L97.9343 75.1544C110.97 75.1544 120.501 72.3528 126.526 66.7496C132.551 61.1464 136.495 53.7304 138.357 44.5016L139.014 42.0296H105L113.709 0.5ZM21.8545 0.5H83.1455L73.7793 44.5016C72.1361 52.0824 69.5618 59.4435 66.0563 66.5848C62.6604 73.6163 57.8951 79.9336 51.7606 85.5368C45.7355 91.0301 38.4507 95.4248 29.9061 98.7208C21.471 101.907 11.5023 103.5 0 103.5L6.07981 75.1544C19.1158 75.1544 28.6463 72.3528 34.6714 66.7496C40.6964 61.1464 44.6401 53.7304 46.5023 44.5016L47.1596 42.0296H13.1455L21.8545 0.5Z" fill="#3852E7"/>
</svg>
