<svg width="38" height="38" viewBox="0 0 38 38" fill="none" xmlns="http://www.w3.org/2000/svg">
<path d="M12.8382 21.5416V11.2975C12.8382 10.861 12.9858 10.4952 13.281 10.1999C13.5763 9.90467 13.9422 9.75705 14.3786 9.75705H15.9191C16.3555 9.75705 16.7214 9.90467 17.0166 10.1999C17.3119 10.4952 17.4595 10.861 17.4595 11.2975V21.5416L17.267 21.349C16.6765 20.7842 15.9704 20.5017 15.1488 20.5017C14.3273 20.5017 13.6212 20.7842 13.0307 21.349L12.8382 21.5416ZM20.5404 23.8522V5.13567C20.5404 4.69921 20.6881 4.33335 20.9833 4.0381C21.2786 3.74284 21.6444 3.59521 22.0809 3.59521H23.6214C24.0578 3.59521 24.4237 3.74284 24.7189 4.0381C25.0142 4.33335 25.1618 4.69921 25.1618 5.13567V19.2309L20.5404 23.8522ZM5.13586 29.1668V17.4593C5.13586 17.0229 5.28349 16.657 5.57875 16.3618C5.874 16.0665 6.23986 15.9189 6.67632 15.9189H8.21678C8.65324 15.9189 9.0191 16.0665 9.31436 16.3618C9.60961 16.657 9.75724 17.0229 9.75724 17.4593V24.5454L5.13586 29.1668ZM8.83296 32.9409C8.16543 32.9409 7.69688 32.6264 7.4273 31.9974C7.15772 31.3684 7.26683 30.81 7.75464 30.3222L14.0705 24.0063C14.3529 23.7239 14.6931 23.5698 15.0911 23.5441C15.489 23.5185 15.842 23.6468 16.1501 23.9293L20.5404 27.7034L29.167 19.0768H28.2427C27.8063 19.0768 27.4404 18.9292 27.1452 18.6339C26.8499 18.3387 26.7023 17.9728 26.7023 17.5364C26.7023 17.0999 26.8499 16.734 27.1452 16.4388C27.4404 16.1435 27.8063 15.9959 28.2427 15.9959H32.8641C33.3006 15.9959 33.6664 16.1435 33.9617 16.4388C34.2569 16.734 34.4046 17.0999 34.4046 17.5364V22.1577C34.4046 22.5942 34.2569 22.9601 33.9617 23.2553C33.6664 23.5506 33.3006 23.6982 32.8641 23.6982C32.4276 23.6982 32.0618 23.5506 31.7665 23.2553C31.4713 22.9601 31.3237 22.5942 31.3237 22.1577V21.2335L21.6958 30.8613C21.4134 31.1437 21.0732 31.2978 20.6752 31.3235C20.2773 31.3491 19.9243 31.2208 19.6162 30.9383L15.2259 27.1642L9.91128 32.4788C9.78291 32.6072 9.62245 32.7163 9.42989 32.8062C9.23733 32.896 9.03836 32.9409 8.83296 32.9409Z" fill="#FAFAFA"/>
</svg>
