<svg width="36" height="36" viewBox="0 0 36 36" fill="none" xmlns="http://www.w3.org/2000/svg">
<g clip-path="url(#clip0_550_1873)">
<path d="M18.5455 33.9922C14.8987 33.9922 11.8056 32.778 9.26591 30.3495C6.72503 27.9223 5.45459 24.966 5.45459 21.4807C5.45459 18.6805 6.31984 16.1705 8.05033 13.9506C9.77958 11.7319 12.0468 10.2353 14.852 9.46075C14.2286 9.3118 13.6208 9.09553 13.0286 8.81194C12.4364 8.52954 11.9065 8.16492 11.439 7.71808C10.4104 6.73503 9.74841 5.56551 9.45293 4.20951C9.1562 2.85469 9.08576 1.47724 9.2416 0.0771475C10.7065 -0.0717986 12.1484 -0.00507078 13.5672 0.277331C14.9848 0.560924 16.2078 1.19424 17.2364 2.17729C17.9533 2.86244 18.4751 3.63696 18.8017 4.50084C19.1296 5.36473 19.3403 6.2733 19.4338 7.22656C19.839 6.30309 20.3302 5.43146 20.9075 4.61166C21.4835 3.79305 22.1299 3.04117 22.8468 2.35602C23.1897 2.02834 23.626 1.8645 24.1559 1.8645C24.6858 1.8645 25.1221 2.02834 25.465 2.35602C25.8078 2.6837 25.9793 3.10075 25.9793 3.60717C25.9793 4.11358 25.8078 4.53063 25.465 4.85831C24.7793 5.51368 24.1715 6.23577 23.6416 7.02459C23.1117 7.8146 22.7221 8.65644 22.4728 9.55011C25.2156 10.3842 27.4286 11.8957 29.1117 14.0846C30.7948 16.2747 31.6364 18.7401 31.6364 21.4807C31.6364 24.966 30.366 27.9223 27.8251 30.3495C25.2854 32.778 22.1923 33.9922 18.5455 33.9922Z" fill="#132B95"/>
</g>
<defs>
<clipPath id="clip0_550_1873">
<rect width="36" height="35.0544" fill="white"/>
</clipPath>
</defs>
</svg>
