<svg width="37" height="36" viewBox="0 0 37 36" fill="none" xmlns="http://www.w3.org/2000/svg">
<path d="M19.0602 34.909C15.3151 34.909 12.1384 33.662 9.53029 31.1681C6.92088 28.6754 5.61617 25.6394 5.61617 22.0601C5.61617 19.1844 6.50475 16.6066 8.28192 14.3269C10.0578 12.0483 12.3862 10.5113 15.267 9.71592C14.6268 9.56296 14.0027 9.34086 13.3945 9.04961C12.7863 8.7596 12.2421 8.38514 11.762 7.92625C10.7057 6.91669 10.0258 5.71562 9.72235 4.32304C9.41762 2.93169 9.34528 1.51708 9.50533 0.0792283C11.0098 -0.0737351 12.4905 -0.00520754 13.9476 0.284811C15.4034 0.576053 16.6595 1.22645 17.7158 2.23601C18.452 2.93964 18.9878 3.73505 19.3233 4.62224C19.66 5.50943 19.8764 6.44251 19.9724 7.42147C20.3886 6.4731 20.893 5.57796 21.4858 4.73605C22.0774 3.89536 22.7413 3.1232 23.4775 2.41957C23.8296 2.08305 24.2777 1.91479 24.8219 1.91479C25.366 1.91479 25.8142 2.08305 26.1663 2.41957C26.5184 2.75609 26.6944 3.18439 26.6944 3.70446C26.6944 4.22454 26.5184 4.65283 26.1663 4.98935C25.4621 5.66239 24.8379 6.40396 24.2937 7.21405C23.7496 8.02537 23.3494 8.88992 23.0934 9.8077C25.9102 10.6643 28.1829 12.2166 29.9114 14.4645C31.6399 16.7137 32.5042 19.2455 32.5042 22.0601C32.5042 25.6394 31.1995 28.6754 28.59 31.1681C25.9819 33.662 22.8053 34.909 19.0602 34.909Z" fill="#FAFAFA"/>
</svg>
