<svg width="38" height="36" viewBox="0 0 38 36" fill="none" xmlns="http://www.w3.org/2000/svg">
<g clip-path="url(#clip0_243_119)">
<path d="M18.1848 17.6561C18.6341 18.1186 19.3659 18.1186 19.8216 17.6561L26.8114 10.5186C28.8397 8.44361 28.7241 5.00612 26.452 3.09363C24.475 1.42488 21.5289 1.72488 19.7189 3.57488L19 4.30613L18.2875 3.58113C16.4775 1.72488 13.5314 1.42488 11.5544 3.09363C9.28869 5.00612 9.16674 8.44361 11.195 10.5186L18.1848 17.6561ZM36.7987 22.5061C36.0413 21.8373 34.8603 21.8811 34.0644 22.5061L28.1336 27.1248C27.4083 27.6936 26.5033 27.9998 25.5662 27.9998H17.973C17.4082 27.9998 16.9461 27.5498 16.9461 26.9998C16.9461 26.4498 17.4082 25.9998 17.973 25.9998H22.9988C24.0193 25.9998 24.9693 25.3186 25.1362 24.3373C25.348 23.0873 24.3595 21.9998 23.1079 21.9998H12.8382C11.1051 21.9998 9.4299 22.5811 8.082 23.6436L5.09736 25.9998H1.54147C0.976633 25.9998 0.514496 26.4498 0.514496 26.9998V32.9998C0.514496 33.5498 0.976633 33.9998 1.54147 33.9998H24.4429C25.3736 33.9998 26.2787 33.6935 27.0104 33.1248L36.7153 25.5623C37.6909 24.8061 37.7679 23.3561 36.7987 22.5061Z" fill="#FAFAFA"/>
</g>
<defs>
<clipPath id="clip0_243_119">
<rect width="36.971" height="35.9999" fill="white" transform="translate(0.514496)"/>
</clipPath>
</defs>
</svg>
